<?xml version="1.0" encoding="UTF-8"?>
<svg width="30px" height="30px" viewBox="0 0 30 30" version="1.1" xmlns="http://www.w3.org/2000/svg"
    xmlns:xlink="http://www.w3.org/1999/xlink">
    <g id="b-link" fill="#F7931A" fill-rule="nonzero">
        <circle id="b" cx="15" cy="15" r="15"></circle>
    </g>

    <g id="e-link" transform="translate(7.000000, 5.000000)" fill="#FFFFFF">
        <path
            d="M15.189,8.02 C15.503,5.924 13.906,4.797 11.724,4.045 L12.432,1.205 L10.704,0.775 L10.014,3.54 C9.56,3.426 9.094,3.32 8.629,3.214 L9.324,0.431 L7.596,0 L6.888,2.839 C6.512,2.753 6.142,2.669 5.784,2.579 L5.786,2.57 L3.402,1.975 L2.942,3.821 C2.942,3.821 4.225,4.115 4.198,4.133 C4.898,4.308 5.024,4.771 5.003,5.139 L4.197,8.374 C4.245,8.386 4.307,8.404 4.377,8.431 L4.194,8.386 L3.064,12.918 C2.978,13.13 2.761,13.449 2.271,13.328 C2.289,13.353 1.015,13.015 1.015,13.015 L0.157,14.993 L2.407,15.554 C2.825,15.659 3.235,15.769 3.638,15.872 L2.923,18.744 L4.65,19.174 L5.358,16.334 C5.83,16.461 6.288,16.579 6.736,16.691 L6.03,19.519 L7.758,19.949 L8.473,17.083 C11.421,17.641 13.637,17.416 14.57,14.75 C15.322,12.604 14.533,11.365 12.982,10.558 C14.112,10.298 14.962,9.555 15.189,8.02 L15.189,8.02 Z M11.239,13.558 C10.706,15.705 7.091,14.544 5.919,14.253 L6.869,10.448 C8.041,10.741 11.798,11.32 11.239,13.558 Z M11.774,7.989 C11.287,9.942 8.279,8.949 7.304,8.706 L8.164,5.256 C9.139,5.499 12.282,5.952 11.774,7.989 Z"
            id="e"></path>
    </g>
</svg>