<svg xmlns="http://www.w3.org/2000/svg" xmlns:xlink="http://www.w3.org/1999/xlink" width="30" height="30">
    <defs>
        <circle id="b" cx="15" cy="15" r="15" />
        <filter id="a" width="111.7%" height="111.7%" x="0" y="-4.2%" filterUnits="objectBoundingBox">
            <feOffset dy=".5" in="SourceAlpha" result="shadowOffsetOuter1" />
            <feGaussianBlur in="shadowOffsetOuter1" result="shadowBlurOuter1" stdDeviation=".5" />
            <feComposite in="shadowBlurOuter1" in2="SourceAlpha" operator="out" result="shadowBlurOuter1" />
            <feColorMatrix in="shadowBlurOuter1" values="0 0 0 0 0 0 0 0 0 0 0 0 0 0 0 0 0 0 0.199473505 0" />
        </filter>
        <path id="e"
            d="M16.498 20.968L24 16.616l-7.502 10.379L9 16.615l7.498 4.351zm0-17.968l7.497 12.22-7.497 4.353L9 15.22 16.498 3z" />

    </defs>
    <g fill="none" fill-rule="evenodd">
        <use fill="#627EEA" xlink:href="#b" />
        <g fill="#FFF" fill-rule="nonzero" transform="translate(-1.5 0)">
            <path fill-opacity=".602" d="M16.498 3v8.87l7.497 3.35z" />
            <path d="M16.498 3L9 15.22l7.498-3.35z" />
            <path fill-opacity=".602" d="M16.498 20.968v6.027L24 16.616z" />
            <path d="M16.498 26.995v-6.028L9 16.616z" />
            <path fill-opacity=".2" d="M16.498 19.573l7.497-4.353-7.497-3.348z" />
            <path fill-opacity=".602" d="M9 15.22l7.498 4.353v-7.701z" />
        </g>
    </g>
</svg>