<?xml version="1.0" encoding="utf-8"?>
<!-- Svg Vector Icons : http://www.onlinewebfonts.com/icon -->
<!DOCTYPE svg PUBLIC "-//W3C//DTD SVG 1.1//EN" "http://www.w3.org/Graphics/SVG/1.1/DTD/svg11.dtd">
<svg version="1.1" xmlns="http://www.w3.org/2000/svg" xmlns:xlink="http://www.w3.org/1999/xlink" x="0px" y="0px" viewBox="0 0 1000 1000" enable-background="new 0 0 1000 1000" xml:space="preserve">
<metadata> Svg Vector Icons : http://www.onlinewebfonts.com/icon </metadata>
<g><g transform="translate(0.000000,511.000000) scale(0.100000,-0.100000)"><path d="M3782.1,4891.3c-1797.7-499-3110.2-1838.8-3554.5-3629.7C22.5,461.9,70.4-720.6,330.1-1472.6C849.6-2955.9,2011.7-4104.3,3495-4603.2c478.5-164.1,635.7-177.8,1524.3-177.8c888.7,0,1045.8,13.7,1524.3,177.8c1497,505.8,2672.7,1681.5,3178.5,3178.5C9886.3-946.2,9900-789,9900,99.6c0,895.5-13.7,1045.8-184.6,1538c-259.7,772.4-615.2,1346.6-1216.8,1948.1c-594.6,587.9-1073.1,895.5-1859.2,1182.5c-499.1,184.6-663.1,205.1-1483.3,225.6C4417.8,5014.4,4144.4,4993.9,3782.1,4891.3z M5791.8,3688.3c1859.3-389.6,3144.4-2248.9,2864.1-4115c-300.8-1996-2201.1-3411-4162.9-3110.2C2497-3236.1,1082-1335.8,1382.8,632.7c170.9,1134.7,916,2173.7,1920.8,2706.9C4110.2,3763.5,4910,3879.6,5791.8,3688.3z"/><path d="M4793.8,3264.4c-27.4-20.5-47.9-177.7-47.9-341.8c0-273.4-13.7-293.9-184.6-293.9c-266.6,0-840.8-287.1-1059.5-519.5c-232.4-252.9-328.1-505.8-328.1-881.8C3173.7,455,3577,85.9,4875.8-344.7c697.2-232.4,929.7-423.8,868.1-731.4c-54.7-293.9-150.4-382.8-471.6-471.7c-348.6-95.7-854.5,0-1339.8,246.1c-191.4,95.7-362.3,170.9-382.8,170.9c-13.7,0-129.9-191.4-246.1-417c-170.9-341.8-191.4-437.4-116.2-485.3c218.7-157.2,710.9-335,1114.2-410.1l444.3-75.2v-259.8c0-287,123-423.7,355.5-389.6c136.7,20.5,157.2,68.3,177.7,341.8c20.5,266.5,47.9,328.1,170.9,362.3c567.3,150.4,724.5,232.4,1011.7,512.7c485.4,485.3,581,1059.5,287.1,1688.4C6584.7,92.7,6154,352.5,5313.3,619.1c-574.2,177.7-799.8,280.3-909.1,417c-170.9,218.7-170.9,300.8-6.8,505.8c184.6,232.4,793,259.7,1339.8,68.3c225.6-82,464.8-164,533.2-191.4c88.8-27.3,157.2,47.9,293.9,355.5c95.7,218.8,157.2,437.5,136.7,478.5c-41,109.4-608.3,300.8-1052.6,362.3l-321.3,47.9l-20.5,328.1c-20.6,314.4-27.4,321.3-246.1,321.3C4937.3,3312.3,4814.3,3291.8,4793.8,3264.4z"/></g></g>
</svg>