<svg width="14" height="14" viewBox="0 0 14 14" fill="none" xmlns="http://www.w3.org/2000/svg">
    <path fill-rule="evenodd" clip-rule="evenodd" d="M4.14454 0.333252C2.03962 0.333252 0.333252 2.03962 0.333252 4.14453V9.8553C0.333252 11.9602 2.03962 13.6666 4.14453 13.6666H9.8553C11.9602 13.6666 13.6666 11.9602 13.6666 9.8553V4.14454C13.6666 2.03962 11.9602 0.333252 9.8553 0.333252H4.14454ZM2.71438 3.57099C2.50389 3.57099 2.33325 3.74163 2.33325 3.95212C2.33325 4.16261 2.50389 4.33325 2.71438 4.33325H5.28546C5.49595 4.33325 5.66658 4.16261 5.66658 3.95212C5.66658 3.74163 5.49595 3.57099 5.28546 3.57099H2.71438ZM8.33347 9.28543C8.33347 9.07493 8.50411 8.9043 8.7146 8.9043H11.2857C11.4962 8.9043 11.6668 9.07493 11.6668 9.28543C11.6668 9.49592 11.4962 9.66656 11.2857 9.66656H8.7146C8.50411 9.66656 8.33347 9.49592 8.33347 9.28543ZM8.71438 10.2376C8.50389 10.2376 8.33325 10.4083 8.33325 10.6188C8.33325 10.8292 8.50389 10.9999 8.71438 10.9999H11.2855C11.4959 10.9999 11.6666 10.8292 11.6666 10.6188C11.6666 10.4083 11.4959 10.2376 11.2855 10.2376H8.71438ZM8.33325 3.95211C8.33325 3.74162 8.50389 3.57098 8.71438 3.57098H9.57124V2.71434C9.57124 2.50385 9.74188 2.33321 9.95237 2.33321C10.1629 2.33321 10.3335 2.50385 10.3335 2.71434V3.57098H11.2855C11.4959 3.57098 11.6666 3.74162 11.6666 3.95211C11.6666 4.1626 11.4959 4.33324 11.2855 4.33324H10.3335V5.28542C10.3335 5.49591 10.1629 5.66654 9.95237 5.66654C9.74188 5.66654 9.57124 5.49591 9.57124 5.28542V4.33324H8.71438C8.50389 4.33324 8.33325 4.1626 8.33325 3.95211ZM2.81156 11.1683C2.66272 11.0194 2.66272 10.7781 2.81156 10.6293L3.41721 10.0236L2.81147 9.41785C2.66263 9.26901 2.66263 9.02769 2.81147 8.87885C2.96031 8.73001 3.20162 8.73001 3.35046 8.87885L3.95621 9.4846L4.62958 8.81123C4.77842 8.66239 5.01974 8.66239 5.16858 8.81123C5.31742 8.96007 5.31742 9.20139 5.16858 9.35023L4.49521 10.0236L5.16849 10.6969C5.31733 10.8457 5.31733 11.087 5.16849 11.2359C5.01965 11.3847 4.77833 11.3847 4.62949 11.2359L3.95621 10.5626L3.35055 11.1683C3.20171 11.3171 2.9604 11.3171 2.81156 11.1683Z" fill="#1FC7D4"></path>
</svg>